<svg width="380" height="50" viewBox="0 0 380 50" fill="none" xmlns="http://www.w3.org/2000/svg">
<path d="M30 14.58V6C30 4.9 29.1 4 28 4H20C18.9 4 18 4.9 18 6V14.58C18 14.84 18.1 15.1 18.3 15.28L23.3 20.28C23.7 20.68 24.32 20.68 24.72 20.28L29.72 15.28C29.9 15.1 30 14.86 30 14.58V14.58ZM14.58 18H6C4.9 18 4 18.9 4 20V28C4 29.1 4.9 30 6 30H14.58C14.84 30 15.1 29.9 15.28 29.7L20.28 24.7C20.68 24.3 20.68 23.68 20.28 23.28L15.28 18.28C15.1881 18.1888 15.0787 18.117 14.9584 18.0689C14.8382 18.0208 14.7095 17.9974 14.58 18V18ZM18 33.42V42C18 43.1 18.9 44 20 44H28C29.1 44 30 43.1 30 42V33.42C30.0016 33.2888 29.9757 33.1588 29.9241 33.0383C29.8724 32.9177 29.7961 32.8093 29.7 32.72L24.7 27.72C24.3 27.32 23.68 27.32 23.28 27.72L18.28 32.72C18.1 32.9 18 33.14 18 33.42ZM32.7 18.3L27.7 23.3C27.3 23.7 27.3 24.32 27.7 24.72L32.7 29.72C32.88 29.9 33.14 30.02 33.4 30.02H42C43.1 30.02 44 29.12 44 28.02V20.02C44 18.92 43.1 18.02 42 18.02H33.42C33.2867 18.0099 33.1528 18.0298 33.0282 18.0782C32.9036 18.1267 32.7914 18.2025 32.7 18.3V18.3Z" fill="#FD4D4D"/>
<path d="M60.432 40.328L85.104 8.168C85.52 7.656 86.048 7.4 86.688 7.4H91.248C91.632 7.4 91.824 7.592 91.824 7.976V40.424C91.824 40.808 91.632 41 91.248 41H86.688C86.048 41 85.52 40.744 85.104 40.232L76.8 29.384L68.448 40.232C68.032 40.744 67.504 41 66.864 41H60.768C60.608 41 60.48 40.936 60.384 40.808C60.288 40.648 60.304 40.488 60.432 40.328ZM80.784 24.2L85.728 30.632V17.768L80.784 24.2ZM98.754 40.328V7.88C98.754 7.72 98.802 7.592 98.898 7.496C99.026 7.368 99.17 7.304 99.33 7.304H124.674C124.834 7.304 124.962 7.368 125.058 7.496C125.186 7.592 125.25 7.72 125.25 7.88V14.936C125.25 15.384 125.106 15.784 124.818 16.136L117.81 25.304C117.394 25.816 116.866 26.072 116.226 26.072H110.13C109.938 26.072 109.794 26.008 109.698 25.88C109.634 25.72 109.666 25.56 109.794 25.4L119.01 13.4H104.898V40.328C104.898 40.712 104.69 40.904 104.274 40.904H99.33C99.17 40.904 99.026 40.856 98.898 40.76C98.802 40.632 98.754 40.488 98.754 40.328ZM130.254 7.976C130.254 7.816 130.302 7.688 130.398 7.592C130.526 7.464 130.67 7.4 130.83 7.4H151.566C151.95 7.4 152.142 7.592 152.142 7.976V12.92C152.142 13.304 151.95 13.496 151.566 13.496H136.398V21.176H148.398C148.782 21.176 148.974 21.368 148.974 21.752V26.648C148.974 27.064 148.782 27.272 148.398 27.272H136.398V34.904H153.054C153.246 34.904 153.374 34.984 153.438 35.144C153.534 35.304 153.518 35.448 153.39 35.576L149.838 40.232C149.422 40.744 148.894 41 148.254 41H130.83C130.67 41 130.526 40.952 130.398 40.856C130.302 40.728 130.254 40.584 130.254 40.424V7.976ZM154.135 40.232L166.519 24.104L154.135 7.976C154.007 7.848 153.991 7.704 154.087 7.544C154.183 7.384 154.311 7.304 154.471 7.304H160.567C161.207 7.304 161.735 7.56 162.151 8.072L170.503 18.92L178.807 8.072C179.223 7.56 179.751 7.304 180.391 7.304H186.487C186.679 7.304 186.807 7.384 186.871 7.544C186.967 7.704 186.951 7.848 186.823 7.976L174.439 24.104L186.823 40.232C186.951 40.392 186.967 40.552 186.871 40.712C186.807 40.84 186.679 40.904 186.487 40.904H180.391C179.751 40.904 179.223 40.648 178.807 40.136L170.503 29.288L162.151 40.136C161.735 40.648 161.207 40.904 160.567 40.904H154.471C154.311 40.904 154.183 40.84 154.087 40.712C153.991 40.552 154.007 40.392 154.135 40.232ZM201.393 7.304H207.489C208.129 7.304 208.657 7.56 209.073 8.072L226.353 30.536V7.88C226.353 7.72 226.401 7.592 226.497 7.496C226.625 7.368 226.769 7.304 226.929 7.304H231.873C232.033 7.304 232.161 7.368 232.257 7.496C232.385 7.592 232.449 7.72 232.449 7.88V40.328C232.449 40.712 232.257 40.904 231.873 40.904H227.313C226.673 40.904 226.145 40.648 225.729 40.136L201.057 7.976C200.929 7.848 200.913 7.704 201.009 7.544C201.105 7.384 201.233 7.304 201.393 7.304ZM239.955 7.4H244.899C245.315 7.4 245.523 7.592 245.523 7.976V40.424C245.523 40.808 245.315 41 244.899 41H239.955C239.795 41 239.651 40.952 239.523 40.856C239.427 40.728 239.379 40.584 239.379 40.424V7.976C239.379 7.816 239.427 7.688 239.523 7.592C239.651 7.464 239.795 7.4 239.955 7.4ZM252.457 7.976C252.457 7.816 252.505 7.688 252.601 7.592C252.729 7.464 252.873 7.4 253.033 7.4H263.737C266.041 7.4 268.201 7.832 270.217 8.696C272.233 9.56 273.993 10.744 275.497 12.248C277.001 13.72 278.201 15.464 279.097 17.48C280.025 19.464 280.505 21.592 280.537 23.864C280.601 26.232 280.169 28.456 279.241 30.536C278.345 32.616 277.113 34.44 275.545 36.008C273.977 37.544 272.137 38.76 270.025 39.656C267.945 40.552 265.721 41 263.353 41H253.033C252.873 41 252.729 40.952 252.601 40.856C252.505 40.728 252.457 40.584 252.457 40.424V7.976ZM258.601 34.904H263.737C265.209 34.904 266.585 34.632 267.865 34.088C269.177 33.512 270.313 32.744 271.273 31.784C272.265 30.792 273.033 29.656 273.577 28.376C274.153 27.064 274.441 25.672 274.441 24.2C274.441 22.728 274.153 21.352 273.577 20.072C273.033 18.76 272.265 17.624 271.273 16.664C270.313 15.672 269.177 14.904 267.865 14.36C266.585 13.784 265.209 13.496 263.737 13.496H258.601V34.904ZM286.113 7.976C286.113 7.816 286.161 7.688 286.257 7.592C286.385 7.464 286.529 7.4 286.689 7.4H307.425C307.809 7.4 308.001 7.592 308.001 7.976V12.92C308.001 13.304 307.809 13.496 307.425 13.496H292.257V21.176H304.257C304.641 21.176 304.833 21.368 304.833 21.752V26.648C304.833 27.064 304.641 27.272 304.257 27.272H292.257V34.904H308.913C309.105 34.904 309.233 34.984 309.297 35.144C309.393 35.304 309.377 35.448 309.249 35.576L305.697 40.232C305.281 40.744 304.753 41 304.113 41H286.689C286.529 41 286.385 40.952 286.257 40.856C286.161 40.728 286.113 40.584 286.113 40.424V7.976ZM311.723 24.056C311.723 21.592 312.171 19.304 313.067 17.192C313.995 15.048 315.227 13.208 316.763 11.672C318.331 10.104 320.171 8.888 322.283 8.024C324.395 7.128 326.667 6.696 329.099 6.728C331.531 6.76 333.803 7.24 335.915 8.168C338.027 9.096 339.851 10.36 341.387 11.96C342.955 13.56 344.187 15.432 345.083 17.576C345.979 19.688 346.411 21.944 346.379 24.344C346.347 26.776 345.867 29.048 344.939 31.16C344.011 33.272 342.747 35.112 341.147 36.68C339.579 38.248 337.739 39.48 335.627 40.376C333.515 41.24 331.243 41.672 328.811 41.672C326.411 41.672 324.155 41.224 322.043 40.328C319.963 39.4 318.155 38.152 316.618 36.584C315.083 34.984 313.883 33.112 313.019 30.968C312.155 28.824 311.723 26.52 311.723 24.056ZM317.867 24.296C317.867 25.864 318.171 27.352 318.779 28.76C319.387 30.168 320.203 31.4 321.227 32.456C322.251 33.512 323.435 34.344 324.779 34.952C326.123 35.56 327.563 35.864 329.099 35.864C330.603 35.832 332.027 35.496 333.371 34.856C334.715 34.216 335.883 33.368 336.875 32.312C337.899 31.224 338.699 29.976 339.275 28.568C339.851 27.128 340.123 25.624 340.091 24.056C340.091 22.488 339.787 21 339.179 19.592C338.571 18.184 337.755 16.968 336.731 15.944C335.707 14.888 334.507 14.056 333.131 13.448C331.787 12.84 330.363 12.536 328.859 12.536C327.355 12.568 325.931 12.904 324.587 13.544C323.243 14.152 322.075 15 321.083 16.088C320.091 17.144 319.307 18.376 318.731 19.784C318.155 21.192 317.867 22.696 317.867 24.296ZM350.967 17.24C350.967 15.736 351.271 14.344 351.879 13.064C352.519 11.784 353.367 10.68 354.423 9.752C355.511 8.824 356.759 8.088 358.167 7.544C359.607 7 361.127 6.728 362.727 6.728C365.223 6.728 367.383 7.176 369.207 8.072C371.063 8.936 372.455 9.944 373.383 11.096C373.607 11.384 373.591 11.64 373.335 11.864L370.023 15.32C369.895 15.448 369.735 15.512 369.543 15.512C369.383 15.512 369.239 15.432 369.111 15.272C368.823 14.952 368.455 14.632 368.007 14.312C367.591 13.992 367.095 13.704 366.519 13.448C365.975 13.16 365.383 12.936 364.743 12.776C364.103 12.616 363.447 12.536 362.775 12.536C361.975 12.536 361.239 12.664 360.567 12.92C359.927 13.144 359.383 13.448 358.935 13.832C358.487 14.216 358.135 14.664 357.879 15.176C357.623 15.688 357.495 16.232 357.495 16.808C357.495 17.736 357.799 18.536 358.407 19.208C359.015 19.88 359.927 20.344 361.143 20.6L365.847 21.512C367.383 21.8 368.727 22.264 369.879 22.904C371.063 23.512 372.039 24.248 372.807 25.112C373.607 25.976 374.215 26.952 374.631 28.04C375.047 29.096 375.255 30.216 375.255 31.4C375.255 32.68 374.983 33.944 374.439 35.192C373.927 36.44 373.143 37.56 372.087 38.552C371.063 39.544 369.799 40.344 368.295 40.952C366.791 41.528 365.063 41.816 363.111 41.816C361.735 41.816 360.439 41.672 359.223 41.384C358.039 41.096 356.951 40.728 355.959 40.28C354.999 39.8 354.151 39.288 353.415 38.744C352.679 38.168 352.071 37.608 351.591 37.064C351.367 36.84 351.367 36.584 351.591 36.296L354.615 32.408C354.711 32.248 354.839 32.168 354.999 32.168C355.191 32.136 355.351 32.184 355.479 32.312C355.927 32.728 356.423 33.16 356.967 33.608C357.511 34.024 358.103 34.408 358.743 34.76C359.383 35.112 360.071 35.4 360.807 35.624C361.543 35.848 362.327 35.96 363.159 35.96C364.919 35.96 366.263 35.576 367.191 34.808C368.119 34.04 368.583 33.048 368.583 31.832C368.583 30.872 368.231 30.04 367.527 29.336C366.855 28.6 365.847 28.104 364.503 27.848L359.799 26.888C357.111 26.344 354.967 25.24 353.367 23.576C351.767 21.912 350.967 19.8 350.967 17.24Z" fill="#FD4D4D"/>
</svg>
